<svg xmlns="http://www.w3.org/2000/svg" viewBox="308 618 205 178" preserveAspectRatio="xMidYMid meet" version="1.0"><path stroke-linecap="butt" transform="matrix(0.401974, 0, 0, 0.402632, 243.004598, 605.434199)" fill-opacity="1" fill="#4658a3" fill-rule="nonzero" stroke-linejoin="miter" d="M 429.500176 55.997274 L 436.001302 56.501767 L 429.500176 56.996559 Z M 378.501806 56.996559 L 381.504568 56.996559 L 387.995977 62.497478 C 391.795588 66.368496 393.467029 72.364207 393.00058 80.504015 C 391.601235 87.431099 388.928874 93.096949 385.002932 97.501565 L 370.999759 111.50126 L 370.504158 114.004324 C 370.698511 107.863086 369.862791 102.701729 367.996997 98.500851 L 367.996997 88.498297 L 366.996076 87.499012 L 366.996076 85.500441 L 368.997918 65.000542 L 372.496281 65.999827 L 375.499044 65.000542 L 387.004773 65.495334 L 383.496692 61.003401 L 375.499044 60.004116 C 374.702194 61.537 372.700353 61.866861 369.503237 61.003401 L 366.996076 59.499623 Z M 439.499666 56.996559 L 442.998029 57.501052 L 439.499666 57.995844 Z M 445.495473 57.995844 L 449.003554 58.500338 L 445.495473 59.004831 Z M 422.503448 59.004831 L 421.502528 61.003401 L 418.499765 63.001972 L 420.501607 60.004116 Z M 450.500076 59.004831 L 452.997519 59.499623 L 450.500076 60.004116 Z M 362.496792 60.004116 L 365.003952 60.498908 L 362.496792 61.003401 Z M 454.503759 60.004116 L 457.001202 60.498908 L 454.503759 61.003401 Z M 458.497725 61.003401 L 460.995168 61.498193 L 458.497725 62.002687 Z M 462.501408 62.002687 L 464.998851 62.497478 L 462.501408 63.001972 Z M 353.498223 63.001972 L 355.004462 63.496764 L 349.999859 71.500747 L 345.996176 85.500441 L 344.004052 96.50228 L 343.003131 117.496971 L 344.004052 118.496256 L 344.004052 128.49881 L 346.997096 139.500649 L 345.996176 139.500649 L 345.500574 135.9983 C 337.298855 144.46797 331.137847 154.965315 326.998117 167.500038 L 324.996275 176.503306 L 324.996275 196.498712 C 326.599692 206.229616 329.602454 214.56346 334.004562 221.500246 L 355.500064 244.998 L 397.499865 278.003517 L 415.001401 294.496574 L 403.495672 283.999228 L 363.497712 253.001984 L 340.000369 230.503514 L 323.995355 206.501266 L 313.995865 181.499732 L 309.000979 154.499629 L 309.000979 118.496256 L 310.001899 117.496971 L 312.003741 99.500136 L 317.999548 79.999522 L 314.501184 80.998807 L 315.502105 79.000237 C 327.036987 72.529137 339.699121 67.20285 353.498223 63.001972 Z M 416.497924 63.001972 L 411.503038 68.997683 Z M 472.500897 65.000542 L 479.002023 67.503606 L 477.495784 67.998398 L 472.500897 65.999827 Z M 483.501308 68.997683 L 492.995479 73.499317 L 491.498956 74.003811 L 483.501308 69.996968 Z M 410.502117 69.996968 L 408.500275 73.004526 Z M 407.499355 74.003811 L 406.498434 76.002381 Z M 502.499367 78.000952 L 507.999572 81.503301 L 506.50305 80.998807 C 503.830689 80.668946 502.499367 79.669661 502.499367 78.000952 Z M 310.497501 81.998092 L 309.49658 83.996663 Z M 509.496095 81.998092 L 513.004176 84.501156 L 511.497936 83.996663 Z M 305.502615 84.995948 L 304.501694 87.00422 Z M 514.500698 84.995948 L 518.999983 88.498297 L 516.50254 87.00422 Z M 302.499853 87.00422 L 300.498011 90.002076 L 297.495249 92.000646 L 299.49709 89.00279 Z M 400.502627 89.00279 L 400.998229 91.496153 L 399.997308 91.496153 Z M 520.496505 89.00279 C 533.304404 97.870234 544.800416 108.037718 555.003977 119.495542 C 570.066376 136.095318 582.067708 155.770564 590.998253 178.501877 L 597.003778 196.498712 L 601.998664 220.50096 L 602.999585 242.504638 L 604.000505 243.503923 L 604.000505 257.503618 L 602.999585 258.502903 L 601.998664 277.499024 L 599.501221 287.996369 L 598.995902 283.504437 L 601.998664 269.504742 L 602.999585 243.503923 L 601.998664 242.504638 L 600.997743 221.500246 L 598.004698 205.501981 L 589.997332 178.501877 L 583.000605 162.503612 C 571.669793 140.170073 557.171019 120.99932 539.504282 105.001055 L 522.498347 92.000646 Z M 295.503125 92.000646 L 293.501283 94.998502 Z M 399.501706 93.999216 L 399.997308 99.500136 L 398.996387 99.500136 Z M 291.499442 94.998502 L 289.4976 97.996357 Z M 399.501706 104.00177 L 399.997308 109.50269 L 398.996387 109.50269 Z M 400.502627 111.996052 L 400.998229 114.499116 L 399.997308 114.499116 Z M 371.495361 115.003609 L 372.00068 117.496971 L 370.999759 117.496971 Z M 404.496592 123.997176 L 408.004674 130.49738 L 406.002832 129.498095 Z M 374.498123 124.996461 L 376.004363 128.49881 L 375.003442 128.49881 Z M 376.499964 130.002589 L 378.997407 135.503508 L 377.996487 135.503508 Z M 408.500275 132.001159 L 409.501196 133.99973 Z M 410.502117 134.999015 L 411.503038 136.997585 Z M 380.503647 138.996155 L 385.002932 146.495645 L 383.00109 145.49636 Z M 380.503647 138.996155 " stroke="#4658a3" stroke-width="1" stroke-opacity="1" stroke-miterlimit="4" /><path stroke-linecap="butt" transform="matrix(0.401974, 0, 0, 0.402632, 243.004598, 605.434199)" fill-opacity="1" fill="#acaafd" fill-rule="nonzero" stroke-linejoin="miter" d="M 428.499255 56.996559 L 443.503349 57.995844 L 460.499566 62.002687 L 488.496194 71.995539 C 508.30082 80.533121 525.131837 92.029751 538.998962 106.504834 L 539.999883 108.503404 L 500.497525 147.999424 L 499.001003 147.504632 L 499.001003 149.503203 L 492.499877 156.003407 L 491.003355 155.498914 C 491.333756 158.166908 490.498036 159.670687 488.496194 160.000548 L 486.999672 159.496055 C 487.330073 162.164049 486.50407 163.667828 484.502229 163.997689 L 482.995989 163.502897 C 483.336108 166.170892 482.500387 167.664969 480.498546 168.004531 L 479.002023 167.500038 C 479.332425 170.168032 478.496704 171.662109 476.50458 172.001672 L 474.99834 171.497179 C 475.328742 174.165173 474.502739 175.668952 472.500897 175.998813 L 470.499056 175.998813 C 449.965604 169.197853 432.804186 159.030368 418.995367 145.49636 C 412.32904 138.831225 407.003753 130.836943 403.00007 121.503814 C 399.530859 114.295378 398.529939 104.632387 399.997308 92.495438 C 402.795999 80.300278 408.296204 70.802217 416.497924 64.001257 Z M 427.002733 59.004831 L 419.996288 63.001972 C 411.998639 68.337961 406.663634 76.002381 404.000991 85.995233 L 407.003753 85.995233 L 407.003753 83.996663 L 408.995877 83.996663 L 408.995877 81.998092 L 410.997718 81.998092 L 410.997718 79.999522 L 412.99956 79.999522 L 412.99956 78.000952 L 415.001401 78.000952 L 415.001401 76.002381 L 417.003243 76.002381 L 417.003243 74.003811 L 418.995367 74.003811 L 418.995367 71.995539 L 420.997208 71.995539 L 420.997208 69.996968 L 422.99905 69.996968 L 422.99905 67.998398 L 425.000891 67.998398 L 425.000891 65.999827 L 427.002733 65.999827 L 427.002733 64.001257 L 429.004574 64.001257 L 429.004574 62.002687 L 430.996698 62.002687 C 431.667218 58.665268 430.335896 57.665983 427.002733 59.004831 Z M 344.499653 101.003915 L 345.996176 130.49738 L 349.504257 141.004428 C 351.370051 137.395359 353.196975 136.231143 355.004462 137.502079 L 355.004462 135.503508 L 361.495871 129.003304 L 363.002111 129.498095 C 362.661992 126.830101 363.497712 125.336024 365.499554 124.996461 L 366.996076 125.500954 C 366.665675 122.83296 367.501395 121.329181 369.503237 120.99932 L 370.999759 121.503814 L 371.495361 118.001465 C 380.834048 146.670278 396.168543 169.333678 417.498845 186.001367 L 442.998029 205.501981 C 441.666708 207.966237 440.335386 208.635661 439.004064 207.500551 C 439.334465 210.168546 438.498745 211.662622 436.496903 212.002185 L 435.000381 211.497692 C 435.330782 214.165686 434.50478 215.669465 432.502938 215.999326 L 430.996698 215.504534 C 431.336817 218.162827 430.501097 219.666606 428.499255 219.996467 L 427.002733 219.501675 C 427.333134 222.16967 426.497414 223.663747 424.495572 224.003309 L 422.99905 223.498816 C 423.329451 226.16681 422.503448 227.670589 420.501607 228.00045 L 418.995367 227.495957 C 419.335486 230.163951 418.499765 231.66773 416.497924 231.997591 L 415.001401 231.502799 L 414.496082 233.996161 L 412.99956 233.50137 L 412.503958 236.004434 L 411.503038 233.996161 L 410.502117 238.003004 L 409.996798 236.004434 L 406.498434 234.995447 L 389.997818 218.50239 C 373.934498 201.563051 361.262647 181.237784 352.0017 157.497484 L 344.995255 131.496666 C 346.132223 127.3637 345.801822 124.695705 344.004052 123.502384 Z M 312.499342 176.998098 C 319.437764 203.736253 331.769496 225.070507 349.504257 241.00086 L 378.997407 266.497185 L 378.501806 269.000249 L 376.995566 268.495755 L 376.499964 270.998819 L 375.003442 270.504027 L 374.498123 272.997389 L 373.001601 272.502598 L 372.496281 274.99596 L 370.999759 274.501168 L 370.504158 277.004232 L 368.997918 276.499738 L 368.502316 279.002802 L 366.996076 278.498309 L 366.500475 281.001373 L 365.003952 280.496879 L 364.498633 282.999943 L 363.002111 282.49545 L 362.496792 284.998513 L 361.000269 284.503722 L 360.504668 286.997084 L 358.998428 286.502292 L 358.502826 288.995654 L 356.996586 288.500862 L 356.500985 291.003926 L 355.004462 290.499433 L 354.499143 293.002497 L 353.002621 292.498003 L 352.497302 295.001067 L 351.000779 294.496574 L 350.49546 296.999638 L 348.998938 296.504846 L 348.503336 298.998208 L 346.997096 298.503416 L 346.501495 300.996778 L 344.995255 300.501987 L 344.499653 302.995349 L 343.003131 302.500557 L 342.497812 305.003621 L 341.00129 304.499127 L 340.49597 307.002191 L 338.999448 306.497698 L 338.503847 309.000762 L 336.997607 308.496268 L 336.502005 310.999332 L 334.995765 310.50454 L 334.500164 312.997902 L 333.003641 312.503111 L 332.498322 314.996473 L 331.0018 314.501681 L 330.496481 317.004745 L 328.999958 316.500251 L 328.504357 319.003315 L 326.998117 318.498822 L 326.502515 321.001886 L 324.996275 320.497392 L 324.500674 323.000456 L 323.004151 322.495963 L 322.498832 324.999027 L 321.00231 324.504235 L 320.496991 326.997597 L 319.000468 326.502805 L 318.495149 328.996167 L 316.998627 328.501376 L 316.503025 331.004439 L 314.996785 330.499946 L 314.501184 333.00301 L 313.004662 332.498516 L 312.499342 335.00158 L 311.00282 334.497087 L 310.497501 337.000151 L 309.000979 336.495657 L 308.000058 340.997291 L 305.998216 340.997291 L 305.998216 342.995862 L 303.996375 342.995862 L 267.001178 346.498211 C 254.329327 331.829092 243.999436 314.831542 236.001788 295.495859 L 225.001377 260.501473 L 221.998615 238.497796 L 222.999535 238.497796 L 224.000456 249.499635 L 227.49882 263.004537 Z M 221.503013 209.00433 L 221.998615 216.50382 L 220.997694 216.50382 Z M 221.503013 224.003309 L 221.998615 234.500655 L 220.997694 234.500655 Z " stroke="#acaafd" stroke-width="1" stroke-opacity="1" stroke-miterlimit="4" /><path stroke-linecap="butt" transform="matrix(0.401974, 0, 0, 0.402632, 243.004598, 605.434199)" fill-opacity="1" fill="#d0dffd" fill-rule="nonzero" stroke-linejoin="miter" d="M 431.502017 57.995844 L 432.502938 60.004116 L 430.996698 59.499623 L 430.501097 62.002687 L 429.004574 61.498193 L 428.499255 64.001257 L 427.002733 63.496764 L 426.497414 65.999827 L 425.000891 65.495334 L 424.495572 67.998398 L 422.99905 67.503606 L 422.503448 69.996968 L 420.997208 69.502176 L 420.501607 71.995539 L 418.995367 71.500747 L 418.499765 74.003811 L 417.003243 73.499317 L 416.497924 76.002381 L 415.001401 75.497888 L 414.496082 78.000952 L 412.99956 77.496458 L 412.503958 79.999522 L 410.997718 79.50473 L 410.502117 81.998092 L 408.995877 81.503301 L 408.500275 83.996663 L 407.003753 83.501871 L 406.498434 85.995233 C 405.701584 84.530262 404.865864 84.695192 404.000991 86.499727 L 404.496592 88.003505 C 402.630798 87.198256 402.465598 86.363901 404.000991 85.500441 C 406.867706 75.701625 412.03751 68.202136 419.500686 63.001972 L 426.497414 59.004831 Z M 364.498633 61.003401 L 367.996997 61.498193 L 365.995155 68.502891 L 365.995155 95.502995 L 370.999759 121.503814 C 369.668437 120.368703 368.337116 121.038127 366.996076 123.502384 L 366.500475 125.995746 C 365.363506 124.133001 364.197385 124.637494 363.002111 127.499525 L 362.496792 130.002589 L 361.495871 129.003304 L 355.004462 135.503508 L 354.499143 137.99687 L 353.498223 136.997585 L 348.998938 140.499934 L 344.995255 122.503099 L 344.995255 100.499421 L 348.998938 79.50473 L 355.004462 64.001257 Z M 314.501184 80.998807 L 315.997706 81.503301 L 312.003741 92.495438 L 308.000058 114.499116 L 306.999137 148.503917 L 308.000058 149.503203 L 308.000058 159.496055 L 312.003741 178.501877 L 227.003218 262.500044 L 221.998615 237.49851 L 220.997694 217.503105 L 221.998615 216.50382 L 221.998615 205.501981 L 225.001377 193.500857 L 233.999946 169.498608 C 239.937447 156.430286 246.934174 144.429162 254.999846 133.495236 L 273.997905 112.500545 L 273.997905 110.996766 L 298.49617 91.001361 Z M 541.496406 337.000151 L 542.001725 361.497191 L 541.000804 362.496476 L 539.999883 374.4976 L 534.995279 392.504137 L 528.503871 400.003627 C 517.163342 408.997194 504.501208 416.671316 490.498036 422.996888 L 466.495373 432.000157 L 451.500997 435.997297 L 442.502428 436.996583 Z " stroke="#d0dffd" stroke-width="1" stroke-opacity="1" stroke-miterlimit="4" /><path stroke-linecap="butt" transform="matrix(0.401974, 0, 0, 0.402632, 243.004598, 605.434199)" fill-opacity="1" fill="#8db8fb" fill-rule="nonzero" stroke-linejoin="miter" d="M 533.498757 100.004629 L 548.998452 114.499116 C 559.668462 125.830816 568.997432 138.501364 577.004798 152.501058 L 576.499479 154.004837 L 577.996001 154.499629 L 574.497637 157.002693 L 572.000194 156.003407 L 573.001115 158.496769 L 570.999273 159.496055 L 571.504593 158.001978 C 569.765128 157.536291 569.269527 158.196014 569.998353 160.000548 L 567.996511 160.000548 L 567.996511 161.504327 C 569.531904 162.367787 569.366704 163.202141 567.50091 163.997689 L 567.50091 161.999119 C 565.771163 161.533432 565.265844 162.202856 566.004387 163.997689 L 564.002546 163.997689 L 564.002546 165.501468 C 565.537939 166.364928 565.363021 167.199282 563.497227 168.004531 L 563.497227 165.996259 C 561.301032 165.268624 560.465311 165.763416 560.999784 167.500038 L 559.998863 170.003102 L 557.997021 170.003102 L 557.997021 172.001672 C 556.199251 171.264336 555.528731 171.768829 555.99518 173.495749 C 557.530573 174.368911 557.365372 175.203266 555.499578 175.998813 L 555.499578 174.000243 C 553.303383 173.262906 552.467663 173.767399 553.002135 175.504021 L 552.001215 177.997383 L 549.999373 177.997383 L 549.999373 179.995954 C 548.201603 179.268319 547.531083 179.763111 547.997532 181.499732 C 549.532925 182.363192 549.367724 183.197547 547.50193 184.002796 L 547.50193 182.004226 C 545.296017 181.266889 544.470015 181.771383 545.004487 183.498303 L 544.003566 186.001367 L 542.001725 186.001367 L 542.001725 187.999937 C 539.999883 187.330513 539.329364 187.999937 539.999883 189.998508 L 536.997121 189.998508 L 536.997121 191.502286 L 535.9962 193.995648 L 534.004076 193.995648 L 532.002235 198.002491 L 528.999473 198.002491 L 528.999473 200.495853 L 527.50295 200.001061 L 507.503971 190.997793 L 477.495784 180.995239 L 465.999771 175.504021 L 467.496294 174.999528 L 470.499056 175.998813 L 473.99742 174.504736 L 473.501818 173.000957 L 474.99834 173.495749 L 475.50366 171.002387 C 476.300509 172.535271 477.136229 172.370341 478.001103 170.497894 L 477.495784 169.003817 L 479.002023 169.498608 L 479.497625 166.995544 C 480.362498 168.53813 481.198219 168.363498 482.004786 166.500753 L 481.499467 164.996974 L 482.995989 165.501468 L 483.501308 162.998404 C 484.366181 164.531288 485.201902 164.366357 485.998751 162.503612 L 485.50315 160.999833 L 486.999672 161.504327 L 487.495273 159.001263 C 488.301841 160.534147 489.137561 160.369216 490.002434 158.496769 L 489.497115 157.002693 L 491.003355 157.497484 L 491.498956 155.004122 C 492.36383 156.469094 493.19955 156.304163 493.996399 154.499629 L 493.500798 152.99585 C 494.365671 154.528734 495.201391 154.363803 495.998241 152.501058 L 495.502639 150.99728 C 496.367513 152.530164 497.203233 152.365233 498.000082 150.502488 L 497.504481 148.998709 L 499.001003 149.503203 L 499.496605 147.000139 C 500.371196 148.533023 501.197198 148.368092 502.003765 146.495645 L 501.498446 145.001568 C 502.363319 146.534453 503.19904 146.369522 503.995889 144.497075 L 503.500288 143.002998 C 504.297137 144.535882 505.132857 144.370952 505.997731 142.498505 L 505.502129 141.004428 C 506.367002 142.537312 507.202723 142.362679 507.999572 140.499934 L 507.503971 138.996155 C 508.368844 140.52904 509.204564 140.364109 510.001414 138.501364 L 509.496095 136.997585 C 510.302662 138.530469 511.128664 138.365539 512.003255 136.502793 L 511.497936 134.999015 C 512.362809 136.531899 513.19853 136.366968 513.995379 134.504223 L 513.499778 133.000444 C 514.364651 134.533328 515.200371 134.368398 515.997221 132.495951 L 515.501619 131.001874 C 516.366492 132.534758 517.202213 132.369827 517.999062 130.49738 L 517.503461 129.003304 C 518.368334 130.536188 519.204054 130.371257 520.000904 128.49881 L 519.495584 127.004733 C 520.370175 128.537617 521.196178 128.362985 522.002745 126.50024 L 521.497426 124.996461 C 522.362299 126.529345 523.198019 126.364414 524.004587 124.501669 L 523.499267 122.997891 C 524.364141 124.462862 525.199861 124.297932 525.99671 122.503099 L 525.501109 120.99932 C 526.365982 122.532204 527.201702 122.367274 527.998552 120.504528 L 527.50295 119.00075 C 528.2998 120.533634 529.13552 120.368703 530.000393 118.496256 L 529.504792 117.002179 C 530.369665 118.535064 531.195668 118.370133 532.002235 116.497686 L 531.496916 115.003609 C 532.361789 116.536493 533.197509 116.361861 534.004076 114.499116 L 533.498757 112.995337 C 534.295607 114.47001 535.131327 114.295378 535.9962 112.500545 L 535.500599 110.996766 C 536.365472 112.529651 537.201192 112.36472 537.998042 110.501975 L 537.50244 108.998196 C 538.367313 110.463168 539.203034 110.298237 539.999883 108.503404 Z M 433.503859 197.003206 C 453.697192 209.470016 471.869248 223.964502 488.000593 240.496366 C 488.535065 242.232988 487.699345 242.737481 485.50315 242.000145 L 483.99691 245.997286 L 480.002944 247.501064 C 480.867818 250.033233 480.032097 250.867588 477.495784 250.004128 L 475.999261 254.001269 L 471.995578 255.495346 C 472.870169 258.037217 472.034449 258.86187 469.498135 257.99841 L 468.001613 261.99555 L 463.99793 263.499329 C 464.862803 266.031498 464.036801 266.865853 461.500487 266.002393 L 460.003965 269.999534 L 456.000282 271.503312 C 456.865155 274.035482 456.029435 274.869836 453.502839 273.996675 L 451.996599 278.003517 L 448.002633 278.003517 L 448.002633 282.000658 L 446.496393 282.000658 L 446.496393 282.999943 L 448.002633 283.504437 L 446.496393 283.999228 C 435.495983 265.66283 422.32853 249.499635 407.003753 235.49994 L 408.500275 236.004434 C 410.035668 235.529045 410.53127 236.033539 409.996798 237.49851 L 410.997718 237.49851 L 411.503038 233.996161 L 412.503958 236.004434 L 413.495162 232.996876 L 415.001401 233.50137 L 415.497003 230.998306 C 416.633971 232.80284 417.800093 232.298347 418.995367 229.504229 L 419.500686 227.001165 C 420.69596 228.795998 421.862082 228.301206 422.99905 225.497386 L 423.504369 223.004024 C 424.63162 224.798857 425.797741 224.304065 427.002733 221.500246 L 427.498334 218.997182 C 428.703326 220.869629 429.869448 220.365135 430.996698 217.503105 L 431.502017 215.000041 C 432.298867 216.532925 433.134587 216.367994 433.99946 214.495547 L 433.503859 213.001471 L 435.000381 213.496262 L 435.495983 211.0029 C 436.370574 212.535784 437.196576 212.370854 438.003143 210.498407 L 437.497824 209.00433 L 439.004064 209.499121 L 439.499666 206.996058 C 440.364539 208.528942 441.200259 208.364011 441.997109 206.501266 L 441.997109 204.502695 L 438.498745 201.000346 C 435.437677 200.204799 433.766236 198.865951 433.503859 197.003206 Z M 536.501519 313.997188 L 539.999883 321.496677 L 543.002645 337.504644 L 543.002645 361.497191 L 542.001725 361.497191 L 541.496406 337.000151 L 442.502428 436.996583 L 443.99895 437.501076 L 436.496903 438.995153 L 427.498334 438.995153 L 426.497414 440.00414 L 410.502117 440.00414 Z " stroke="#8db8fb" stroke-width="1" stroke-opacity="1" stroke-miterlimit="4" /><path stroke-linecap="butt" transform="matrix(0.401974, 0, 0, 0.402632, 243.004598, 605.434199)" fill-opacity="1" fill="#76c0fd" fill-rule="nonzero" stroke-linejoin="miter" d="M 368.502316 60.004116 C 369.367189 61.537 371.369031 61.866861 374.498123 61.003401 C 375.499044 59.334692 377.831286 59.004831 381.504568 60.004116 L 387.004773 64.496049 L 386.499454 65.999827 L 375.499044 65.000542 L 372.496281 65.999827 L 368.997918 65.000542 L 367.501395 79.000237 L 366.996076 68.502891 L 368.997918 61.498193 Z M 478.496704 229.999021 C 496.367513 245.463687 511.867208 263.295591 524.99579 283.504437 C 531.866187 293.962975 536.870791 306.303662 539.999883 320.497392 L 538.998962 320.497392 L 536.501519 313.997188 L 534.004076 314.996473 L 531.496916 319.003315 C 530.029546 318.537629 529.533945 319.032421 530.000393 320.497392 L 525.99671 323.000456 L 523.499267 326.997597 L 522.002745 326.997597 L 522.002745 328.996167 L 520.000904 328.996167 L 520.000904 331.004439 L 517.999062 331.004439 L 517.999062 333.00301 L 515.997221 333.00301 L 515.997221 335.00158 L 513.995379 335.00158 L 513.995379 337.000151 L 512.003255 337.000151 L 512.003255 338.998721 L 510.001414 338.998721 L 510.001414 340.997291 L 507.999572 340.997291 L 507.999572 342.995862 L 505.997731 342.995862 L 505.997731 345.004134 L 503.995889 345.004134 L 503.995889 347.002704 L 502.003765 347.002704 L 502.003765 349.001275 L 500.001924 349.001275 L 500.001924 350.999845 L 498.000082 350.999845 L 498.000082 352.998416 L 495.998241 352.998416 L 495.998241 354.996986 L 493.996399 354.996986 L 493.996399 356.995556 L 492.004276 356.995556 L 492.004276 359.003828 L 490.002434 359.003828 L 490.002434 361.002399 L 488.000593 361.002399 L 488.000593 363.000969 L 485.998751 363.000969 L 485.998751 364.99954 L 483.99691 364.99954 L 483.99691 366.99811 L 482.004786 366.99811 L 482.004786 368.99668 L 480.002944 368.99668 L 480.002944 370.995251 L 478.001103 370.995251 L 478.001103 373.003523 L 475.999261 373.003523 L 475.999261 375.002093 L 473.99742 375.002093 L 473.99742 377.000664 L 471.995578 377.000664 L 471.995578 378.999234 L 470.003454 378.999234 L 470.003454 380.997805 L 468.001613 380.997805 L 468.001613 382.996375 L 465.999771 382.996375 L 465.999771 385.004647 L 463.99793 385.004647 L 463.99793 387.003217 L 461.996088 387.003217 C 462.734632 388.79805 462.229313 389.467474 460.499566 389.001788 L 410.502117 440.00414 L 419.996288 440.498932 L 398.500786 441.003425 L 397.499865 440.00414 L 387.500375 440.00414 L 361.000269 434.998012 C 360.067372 432.330018 361.904013 431.670295 366.500475 432.999442 C 397.033416 425.529057 421.20128 411.703995 439.004064 391.49515 C 445.670391 384.170292 450.995678 375.496885 454.999361 365.504033 L 460.003965 344.499641 L 460.003965 329.500661 L 454.999361 305.498413 L 440.996188 277.499024 L 442.998029 278.498309 L 445.495473 282.999943 L 448.002633 282.000658 L 448.002633 278.003517 C 451.462126 279.400576 452.803166 278.566221 451.996599 275.500453 L 456.000282 273.996675 L 457.496804 269.999534 C 460.033118 270.862994 460.868838 270.028639 460.003965 267.49647 L 463.99793 266.002393 L 465.50417 261.99555 C 468.030766 262.868712 468.866486 262.034358 468.001613 259.502188 L 471.995578 257.99841 L 473.501818 254.001269 C 476.038132 254.864729 476.864135 254.030374 475.999261 251.498205 L 480.002944 250.004128 L 481.499467 245.997286 C 484.03578 246.870447 484.871501 246.036093 483.99691 243.503923 L 488.000593 242.000145 Z M 418.499765 307.002191 L 418.995367 310.50454 L 418.499765 311.998617 C 420.229512 312.464304 420.734831 311.804581 419.996288 310.000047 L 421.998129 310.000047 L 421.998129 307.496983 L 422.99905 307.496983 C 427.731559 314.76363 430.063801 324.436322 429.995777 336.495657 C 428.334055 337.504644 428.003654 339.833076 429.004574 343.500355 L 422.99905 358.499335 L 411.503038 372.004238 C 403.96212 378.465635 394.963551 383.462061 384.497613 387.003217 L 364.498633 391.000358 L 345.500574 391.000358 L 327.999038 387.498009 L 331.497401 387.003217 L 341.496891 389.001788 L 341.496891 388.002503 L 338.999448 387.498009 L 341.00129 387.003217 L 341.00129 385.004647 L 343.003131 385.004647 L 343.003131 382.996375 L 344.995255 382.996375 L 344.995255 380.997805 L 346.997096 380.997805 L 346.997096 378.999234 L 348.998938 378.999234 L 348.998938 377.000664 L 351.000779 377.000664 L 351.000779 375.002093 L 353.002621 375.002093 L 353.002621 373.003523 L 355.004462 373.003523 L 355.004462 370.995251 L 356.996586 370.995251 C 356.267761 369.200418 356.763362 368.530994 358.502826 368.99668 L 358.502826 366.99811 L 361.000269 366.503318 L 360.504668 364.99954 L 363.002111 364.504748 L 362.496792 363.000969 L 365.003952 362.496476 L 364.498633 361.002399 L 367.996997 360.497905 L 365.995155 359.49862 L 369.998838 358.499335 L 367.996997 357.50005 L 372.00068 356.500765 L 369.998838 355.501479 L 374.002521 354.502194 L 372.00068 353.502909 L 376.004363 352.503624 L 374.002521 351.504339 L 377.996487 350.495352 L 376.004363 349.496066 L 379.998328 348.496781 L 377.996487 347.497496 L 382.00017 346.498211 L 379.998328 345.498926 L 384.002011 344.499641 L 382.00017 343.500355 L 385.002932 342.50107 L 384.497613 340.997291 L 387.995977 340.5025 L 386.003853 339.503215 L 389.997818 338.503929 L 387.995977 337.504644 L 391.99966 336.495657 L 389.997818 335.496372 L 393.00058 334.497087 L 392.495261 333.00301 L 396.003343 333.00301 L 396.003343 331.004439 L 399.997308 328.996167 L 399.997308 325.50352 L 401.999149 325.50352 L 402.504469 323.000456 L 403.495672 324.999027 L 404.496592 321.001886 L 406.002832 321.496677 L 406.498434 319.003315 L 407.499355 321.001886 L 408.500275 317.004745 L 409.996798 317.499537 L 410.502117 314.996473 L 411.998639 315.500966 L 412.503958 312.997902 L 414.000481 313.502396 L 414.496082 310.999332 L 415.497003 312.997902 L 416.497924 309.000762 L 418.004164 309.495553 Z " stroke="#76c0fd" stroke-width="1" stroke-opacity="1" stroke-miterlimit="4" /></svg>